<?xml version="1.0" encoding="UTF-8" standalone="no"?>
<!-- Created with Inkscape (http://www.inkscape.org/) -->

<svg
   xmlns:dc="http://purl.org/dc/elements/1.1/"
   xmlns:cc="http://creativecommons.org/ns#"
   xmlns:rdf="http://www.w3.org/1999/02/22-rdf-syntax-ns#"
   xmlns:svg="http://www.w3.org/2000/svg"
   xmlns="http://www.w3.org/2000/svg"
   xmlns:sodipodi="http://sodipodi.sourceforge.net/DTD/sodipodi-0.dtd"
   xmlns:inkscape="http://www.inkscape.org/namespaces/inkscape"
   width="744.09448819"
   height="1052.3622047"
   id="svg2"
   version="1.1"
   inkscape:version="0.48.2 r9819"
   sodipodi:docname="pin.svg">
  <defs
     id="defs4">
    <linearGradient
       id="linearGradient5623">
      <stop
         style="stop-color:#70bf70;stop-opacity:1;"
         offset="0"
         id="stop5625" />
      <stop
         style="stop-color:#70bf70;stop-opacity:1;"
         offset="1"
         id="stop5627" />
    </linearGradient>
    <filter
       inkscape:collect="always"
       id="filter5741"
       x="-0.34122416"
       width="1.6824483"
       y="-0.19620977"
       height="1.3924195">
      <feGaussianBlur
         inkscape:collect="always"
         stdDeviation="40.106712"
         id="feGaussianBlur5743" />
    </filter>
  </defs>
  <sodipodi:namedview
     id="base"
     pagecolor="#ffffff"
     bordercolor="#666666"
     borderopacity="1.0"
     inkscape:pageopacity="0.0"
     inkscape:pageshadow="2"
     inkscape:zoom="0.9"
     inkscape:cx="537.7469"
     inkscape:cy="789.50351"
     inkscape:document-units="px"
     inkscape:current-layer="layer1"
     showgrid="false"
     showguides="true"
     inkscape:guide-bbox="true"
     inkscape:window-width="1440"
     inkscape:window-height="791"
     inkscape:window-x="6"
     inkscape:window-y="42"
     inkscape:window-maximized="0" />
  <metadata
     id="metadata7">
    <rdf:RDF>
      <cc:Work
         rdf:about="">
        <dc:format>image/svg+xml</dc:format>
        <dc:type
           rdf:resource="http://purl.org/dc/dcmitype/StillImage" />
        <dc:title></dc:title>
      </cc:Work>
    </rdf:RDF>
  </metadata>
  <g
     inkscape:label="Layer 1"
     inkscape:groupmode="layer"
     id="layer1">
    <path
       sodipodi:nodetypes="ccaaacc"
       inkscape:connector-curvature="0"
       id="path5711"
       d="m 373.29387,477.84501 c 0,0 -139.13659,-185.77773 -139.13659,-268.6732 0,-62.64711 21.65587,-93.52275 52.09531,-123.854511 23.44863,-23.36569 57.89776,-34.66683 89.2635,-33.52703 36.10287,1.31193 74.89393,17.19905 100.29652,45.96885 25.71844,29.127521 40.43521,45.299151 40.43521,114.258231 0,85.63777 -142.95395,265.82766 -142.95395,265.82766 z"
       style="fill:#000000;fill-opacity:0.83111113;stroke:none;filter:url(#filter5741)" />
    <rect
       style="fill:none;stroke:none"
       id="rect5413"
       width="293.21341"
       height="980.99835"
       x="231.93506"
       y="40.679161" />
    <path
       style="fill:#74c06c;fill-opacity:1;stroke:#000000;stroke-width:5.09762239;stroke-linecap:butt;stroke-linejoin:miter;stroke-miterlimit:4;stroke-opacity:1;stroke-dasharray:none"
       d="m 374.42323,450.06723 c 0,0 -142.48817,-169.11106 -142.48817,-252.00653 0,-62.64711 22.50976,-93.52275 54.14944,-123.854518 24.37321,-23.365687 60.18067,-34.666822 92.78317,-33.527028 37.52641,1.311931 77.84701,17.199049 104.25122,45.968854 26.73253,29.127522 42.02958,45.299152 42.02958,114.258232 0,85.63777 -150.72524,249.16099 -150.72524,249.16099 z"
       id="path3099"
       inkscape:connector-curvature="0"
       sodipodi:nodetypes="ccaaacc" />
    <path
       sodipodi:type="arc"
       style="fill:#abe1e2;fill-opacity:1;fill-rule:evenodd;stroke:none"
       id="path3063"
       sodipodi:cx="300"
       sodipodi:cy="358.07648"
       sodipodi:rx="124.12141"
       sodipodi:ry="124.12141"
       d="m 424.12141,358.07648 a 124.12141,124.12141 0 1 1 -248.24282,0 124.12141,124.12141 0 1 1 248.24282,0 z"
       transform="matrix(0.79589506,-0.09583433,-0.08891722,-0.85780983,171.93832,532.6972)" />
    <path
       sodipodi:type="arc"
       style="fill:#78bf6e;fill-opacity:1"
       id="path5407"
       sodipodi:cx="-84.892006"
       sodipodi:cy="336.70096"
       sodipodi:rx="73.349754"
       sodipodi:ry="73.349754"
       d="m -11.542252,336.70096 a 73.349754,73.349754 0 1 1 -146.699508,0 73.349754,73.349754 0 1 1 146.699508,0 z"
       transform="matrix(0.80084656,0,0,0.86314653,446.85315,-92.713167)" />
  </g>
</svg>
